<?xml version="1.0" encoding="utf-8"?>
<svg viewBox="0 0 106 73" xmlns="http://www.w3.org/2000/svg" xmlns:bx="https://boxy-svg.com">
  <g>
    <title>Robot-1</title>
    <g style="" class="bone bone-back-tire">
      <title>Tire-Back</title>
      <g>
        <path fill="#545454" d="M 85.85 73 C 89.317 72.933 91.867 71.933 93.5 70 L 77.5 70 C 75.9 71.9 73.4 72.9 70 73 L 85.85 73 M 79.5 60 L 79.5 63 L 95.5 63 L 95.5 60 L 79.5 60 M 79.5 50 L 79.5 53 L 95.5 53 L 95.5 50 L 79.5 50 M 74.25 40.75 C 75.583 41.25 76.667 42 77.5 43 L 93.5 43 C 92.667 42 91.583 41.25 90.25 40.75 C 89.017 40.283 87.55 40.033 85.85 40 L 70 40 C 71.633 40.033 73.05 40.283 74.25 40.75 Z"/>
        <path fill="#464646" d="M 79.5 49.9 L 79.5 50 L 95.5 50 L 95.5 49.9 C 95.5 46.933 94.833 44.633 93.5 43 L 77.5 43 C 78.833 44.633 79.5 46.933 79.5 49.9 M 79.5 53 L 79.5 60 L 95.5 60 L 95.5 53 L 79.5 53 M 79.5 63.05 C 79.5 66.05 78.833 68.367 77.5 70 L 93.5 70 C 94.833 68.367 95.5 66.05 95.5 63.05 L 95.5 63 L 79.5 63 L 79.5 63.05 Z"/>
        <path fill="#333333" d="M 70.5 40 L 55 40 C 48.333 40 45 43.3 45 49.9 L 45 63.05 C 45 69.683 48.333 73 55 73 L 70.5 73 C 73.9 72.9 76.4 71.9 78 70 C 79.333 68.367 80 66.05 80 63.05 L 80 63 L 80 60 L 80 53 L 80 50 L 80 49.9 C 80 46.933 79.333 44.633 78 43 C 77.167 42 76.083 41.25 74.75 40.75 C 73.55 40.283 72.133 40.033 70.5 40 M 55 45 L 70.45 45 C 71.417 45.033 72.25 45.167 72.95 45.4 L 73 45.45 C 74.333 46.183 75 47.667 75 49.9 L 75 63.05 C 75 66.183 73.5 67.833 70.5 68 L 55 68 C 51.667 68 50 66.35 50 63.05 L 50 49.9 C 50 46.633 51.667 45 55 45 Z"/>
        <path fill="#191919" d="M 70.45 45 L 55 45 C 51.667 45 50 46.633 50 49.9 L 50 63.05 C 50 66.35 51.667 68 55 68 L 70.5 68 C 73.5 67.833 75 66.183 75 63.05 L 75 49.9 C 75 47.667 74.333 46.183 73 45.45 L 72.95 45.4 C 72.25 45.167 71.417 45.033 70.45 45 Z"/>
      </g>
    </g>
    <g class="bone bone-body" style="">
      <title>Body-1</title>
      <path fill="#A4B4C6" d="M 53 3 C 54.267 4.6 54.933 6.8 55 9.6 L 55 54.4 C 54.867 60.6 51.75 63.8 45.65 64 L 72 64 C 78.533 64 81.867 60.8 82 54.4 L 82 12.65 C 81.9 7.883 80.05 4.883 76.45 3.65 C 75.183 3.217 73.7 3 72 3 L 53 3 M 53 3 C 51.433 1.1 48.983 0.1 45.65 0 L 13.4 0 C 12.9 0 12.433 0.033 12 0.1 C 6.667 0.733 4 4.033 4 10 L 4 12.5 C 4.067 10.4 4.483 8.667 5.25 7.3 C 6.15 5.533 7.6 4.317 9.6 3.65 C 10 3.517 10.4 3.4 10.8 3.3 C 11.2 3.2 11.6 3.133 12 3.1 C 12.433 3.033 12.9 3 13.4 3 L 53 3 Z"/>
      <path fill="#94A2B1" d="M 55 9.6 C 54.933 6.8 54.267 4.6 53 3 L 13.4 3 C 12.9 3 12.433 3.033 12 3.1 C 11.6 3.133 11.2 3.2 10.8 3.3 C 10.4 3.4 10 3.517 9.6 3.65 C 7.6 4.317 6.15 5.533 5.25 7.3 C 4.483 8.667 4.067 10.4 4 12.5 L 4 54.4 C 4.133 60.1 6.8 63.267 12 63.9 C 12.433 63.967 12.9 64 13.4 64 L 45.65 64 C 51.75 63.8 54.867 60.6 55 54.4 L 55 9.6 Z"/>
      <path fill="#BBCADB" d="M 45.5 0 C 48.833 0.1 51.283 1.1 52.85 3 L 71.85 3 C 73.55 3 75.033 3.217 76.3 3.65 C 79.9 4.883 81.75 7.883 81.85 12.65 L 81.85 10 C 81.85 3.333 78.517 0 71.85 0 L 45.5 0 Z"/>
    </g>
    <g style="" class="bone bone-face">
      <title>Face-1</title>
      <path fill="#758391" d="M 65 30 L 65 35 L 74 35 L 74 30 L 65 30 Z" class="bone bone-mouth"/>
      <path fill="#FFFFFF" d="M 64 22 C 63.3 21.333 62.483 21 61.55 21 L 61.45 21 C 60.517 21 59.7 21.333 59 22 C 58.333 22.7 58 23.533 58 24.5 C 58 25.467 58.333 26.283 59 26.95 C 59.7 27.65 60.517 28 61.45 28 L 61.55 28 C 62.483 28 63.3 27.65 64 26.95 C 64.667 26.283 65 25.467 65 24.5 C 65 23.533 64.667 22.7 64 22 M 76.55 21 L 76.45 21 C 75.517 21 74.7 21.333 74 22 C 73.333 22.7 73 23.533 73 24.5 C 73 25.467 73.333 26.283 74 26.95 C 74.7 27.65 75.517 28 76.45 28 L 76.55 28 C 77.483 28 78.3 27.65 79 26.95 C 79.667 26.283 80 25.467 80 24.5 C 80 23.533 79.667 22.7 79 22 C 78.3 21.333 77.483 21 76.55 21 Z" class="bone bone-eyes"/>
    </g>
    <g style="" class="bone bone-front-tire">
      <title>Tire-Front</title>
      <g>
        <title>Tire</title>
        <path fill="#545454" d="M 48.5 70 L 32.5 70 C 30.9 71.9 28.4 72.9 25 73 L 40.85 73 C 44.317 72.933 46.867 71.933 48.5 70 M 50.5 63 L 50.5 60 L 34.5 60 L 34.5 63 L 50.5 63 M 34.5 50 L 34.5 53 L 50.5 53 L 50.5 50 L 34.5 50 M 25 40 C 26.633 40.033 28.05 40.283 29.25 40.75 C 30.583 41.25 31.667 42 32.5 43 L 48.5 43 C 47.667 42 46.583 41.25 45.25 40.75 C 44.017 40.283 42.55 40.033 40.85 40 L 25 40 Z"/>
        <path fill="#464646" d="M 50.5 63.05 L 50.5 63 L 34.5 63 L 34.5 63.05 C 34.5 66.05 33.833 68.367 32.5 70 L 48.5 70 C 49.833 68.367 50.5 66.05 50.5 63.05 M 50.5 53 L 34.5 53 L 34.5 60 L 50.5 60 L 50.5 53 M 34.5 49.9 L 34.5 50 L 50.5 50 L 50.5 49.9 C 50.5 46.933 49.833 44.633 48.5 43 L 32.5 43 C 33.833 44.633 34.5 46.933 34.5 49.9 Z" bx:origin="0 0"/>
        <path fill="#333333" d="M 29.75 40.75 C 28.55 40.283 27.133 40.033 25.5 40 L 10 40 C 3.333 40 0 43.3 0 49.9 L 0 63.05 C 0 69.683 3.333 73 10 73 L 25.5 73 C 28.9 72.9 31.4 71.9 33 70 C 34.333 68.367 35 66.05 35 63.05 L 35 63 L 35 60 L 35 53 L 35 50 L 35 49.9 C 35 46.933 34.333 44.633 33 43 C 32.167 42 31.083 41.25 29.75 40.75 M 27.95 45.4 L 28 45.45 C 29.333 46.183 30 47.667 30 49.9 L 30 63.05 C 30 66.183 28.5 67.833 25.5 68 L 10 68 C 6.667 68 5 66.35 5 63.05 L 5 49.9 C 5 46.633 6.667 45 10 45 L 25.45 45 C 26.417 45.033 27.25 45.167 27.95 45.4 Z"/>
        <path fill="#191919" d="M 28 45.45 L 27.95 45.4 C 27.25 45.167 26.417 45.033 25.45 45 L 10 45 C 6.667 45 5 46.633 5 49.9 L 5 63.05 C 5 66.35 6.667 68 10 68 L 25.5 68 C 28.5 67.833 30 66.183 30 63.05 L 30 49.9 C 30 47.667 29.333 46.183 28 45.45 Z"/>
      </g>
      <g>
        <title>Axles</title>
        <g>
          <path fill="#545454" d="M 14 53.5 C 13.3 52.5 12.467 52 11.5 52 C 10.567 52 9.733 52.5 9 53.5 C 8.333 54.467 8 55.633 8 57 C 8 58.367 8.333 59.55 9 60.55 C 9.733 61.517 10.567 62 11.5 62 C 12.467 62 13.3 61.517 14 60.55 C 14.667 59.55 15 58.367 15 57 C 15 55.633 14.667 54.467 14 53.5 M 24 53.5 C 23.3 52.5 22.467 52 21.5 52 C 20.567 52 19.733 52.5 19 53.5 C 18.333 54.467 18 55.633 18 57 C 18 58.367 18.333 59.55 19 60.55 C 19.733 61.517 20.567 62 21.5 62 C 22.467 62 23.3 61.517 24 60.55 C 24.667 59.55 25 58.367 25 57 C 25 55.633 24.667 54.467 24 53.5 Z"/>
        </g>
      </g>
    </g>
  </g>
</svg>